<?xml version="1.0" encoding="utf-8"?>
<!-- Generator: Adobe Illustrator 26.2.1, SVG Export Plug-In . SVG Version: 6.00 Build 0)  -->
<svg version="1.1" id="Capa_1" xmlns="http://www.w3.org/2000/svg" xmlns:xlink="http://www.w3.org/1999/xlink" x="0px" y="0px"
	 viewBox="0 0 311.6 77.7" style="enable-background:new 0 0 311.6 77.7;" xml:space="preserve">
<style type="text/css">
	.st0{opacity:0.75;fill:#070809;enable-background:new    ;}
	.st1{fill:#FFFFFF;}
	.st2{fill:#B2B2B2;}
	.st3{fill:#72AC41;}
	.st4{fill:#ADC866;}
	.st5{fill:#DC913D;}
	.st6{fill:#C94236;}
	.st7{fill:#983435;}
</style>
<path class="st0" d="M298.9,71.6H9.5c-1.3,0-2.3-0.5-2.3-1.1V7.2c0-0.6,1-1.1,2.3-1.1H299c1.3,0,2.3,0.5,2.3,1.1v63.4
	C301.3,71.1,300.2,71.6,298.9,71.6z"/>
<g>
	<path class="st1" d="M21.6,15.7v0.8h-3.2v-4.2h3.2V13h-2.2v0.9h1.9v0.8h-1.9v1C19.4,15.7,21.6,15.7,21.6,15.7z"/>
	<path class="st1" d="M22,16.1l0.3-0.7c0.3,0.2,0.7,0.3,1.1,0.3s0.6-0.1,0.6-0.3c0-0.5-1.9,0-1.9-1.3c0-0.6,0.6-1,1.5-1
		c0.4,0,0.9,0.1,1.2,0.3l-0.3,0.7c-0.3-0.2-0.6-0.2-0.9-0.2c-0.4,0-0.6,0.1-0.6,0.3c0,0.6,1.9,0,1.9,1.3c0,0.6-0.6,1-1.5,1
		C22.8,16.5,22.3,16.3,22,16.1z"/>
	<path class="st1" d="M25.3,14.8c0-1,0.8-1.7,1.8-1.7c0.7,0,1.2,0.3,1.4,0.8l-0.7,0.4c-0.2-0.3-0.4-0.4-0.7-0.4
		c-0.5,0-0.8,0.3-0.8,0.9s0.4,0.9,0.8,0.9c0.3,0,0.6-0.1,0.7-0.4l0.7,0.4c-0.2,0.5-0.8,0.8-1.4,0.8C26,16.5,25.3,15.8,25.3,14.8z"/>
	<path class="st1" d="M31.9,14.6v1.8H31V16c-0.2,0.3-0.5,0.4-1,0.4c-0.8,0-1.2-0.4-1.2-1s0.4-1,1.4-1H31c0-0.4-0.2-0.6-0.7-0.6
		c-0.3,0-0.7,0.1-0.9,0.3l-0.3-0.7c0.4-0.3,0.9-0.4,1.4-0.4C31.3,13.2,31.9,13.6,31.9,14.6z M31,15.4v-0.3h-0.6
		c-0.4,0-0.6,0.2-0.6,0.4c0,0.2,0.2,0.4,0.5,0.4C30.6,15.9,30.8,15.7,31,15.4z"/>
	<path class="st1" d="M32.7,12h0.9v4.4h-0.9V12z"/>
	<path class="st1" d="M37.4,14.6v1.8h-0.9V16c-0.2,0.3-0.5,0.4-1,0.4c-0.8,0-1.2-0.4-1.2-1s0.4-1,1.4-1h0.7c0-0.4-0.2-0.6-0.7-0.6
		c-0.3,0-0.7,0.1-0.9,0.3l-0.3-0.7c0.4-0.3,0.9-0.4,1.4-0.4C36.8,13.2,37.4,13.6,37.4,14.6z M36.5,15.4v-0.3h-0.6
		c-0.4,0-0.6,0.2-0.6,0.4c0,0.2,0.2,0.4,0.5,0.4C36.1,15.9,36.4,15.7,36.5,15.4z"/>
	<path class="st1" d="M40,12.2h1v4.2h-1V12.2z"/>
	<path class="st1" d="M41.7,14.3c0-1.3,1-2.2,2.3-2.2c0.7,0,1.3,0.3,1.7,0.7l-0.6,0.6C44.8,13.2,44.5,13,44,13
		c-0.8,0-1.3,0.6-1.3,1.3c0,0.8,0.6,1.3,1.3,1.3c0.4,0,0.8-0.2,1.1-0.5l0.6,0.6c-0.4,0.5-1,0.7-1.7,0.7
		C42.7,16.5,41.7,15.6,41.7,14.3z"/>
	<path class="st1" d="M49.1,15.5h-1.9l-0.4,0.9h-1l1.9-4.2h1l1.9,4.2h-1L49.1,15.5z M48.8,14.8l-0.7-1.6l-0.7,1.6H48.8z"/>
	<path class="st2" d="M18.6,19.1h0.3l-0.5,2.7h-0.3L18.6,19.1z M19.2,18.4h0.4l-0.7,0.5h-0.3L19.2,18.4z"/>
	<path class="st2" d="M21.4,20.4c0,0.1,0,0.2,0,0.2l-0.2,1.2h-0.3l0.2-1.2c0-0.1,0-0.1,0-0.2c0-0.3-0.2-0.5-0.5-0.5
		c-0.4,0-0.7,0.2-0.8,0.7l-0.2,1.1h-0.3l0.4-2.1H20l-0.1,0.3c0.2-0.2,0.5-0.3,0.8-0.3C21.1,19.7,21.4,20,21.4,20.4z"/>
	<path class="st2" d="M24.3,18.9l-0.6,2.9h-0.3l0.1-0.3c-0.2,0.2-0.5,0.3-0.8,0.3c-0.5,0-0.9-0.3-0.9-0.9c0-0.7,0.5-1.2,1.2-1.2
		c0.4,0,0.7,0.2,0.8,0.4l0.3-1.3h0.2C24.3,18.8,24.3,18.9,24.3,18.9z M23.7,20.6c0-0.4-0.2-0.6-0.7-0.6s-0.9,0.4-0.9,1
		c0,0.4,0.2,0.6,0.7,0.6C23.3,21.6,23.7,21.2,23.7,20.6z"/>
	<path class="st2" d="M24.9,19.7h0.3l-0.4,2.1h-0.3L24.9,19.7z M25,19.1c0-0.1,0.1-0.2,0.2-0.2s0.2,0.1,0.2,0.2s-0.1,0.2-0.2,0.2
		C25.1,19.3,25,19.2,25,19.1z"/>
	<path class="st2" d="M25.6,21c0-0.7,0.5-1.2,1.2-1.2c0.4,0,0.7,0.1,0.8,0.4l-0.2,0.1C27.2,20.1,27,20,26.7,20c-0.5,0-0.9,0.4-0.9,1
		c0,0.4,0.2,0.6,0.7,0.6c0.3,0,0.5-0.1,0.6-0.3l0.2,0.2c-0.2,0.2-0.5,0.4-0.9,0.4C25.9,21.8,25.6,21.5,25.6,21z"/>
	<path class="st2" d="M28,20.9L28,20.9c0,0.5,0.2,0.7,0.7,0.7c0.3,0,0.5-0.1,0.7-0.3l0.1,0.2c-0.2,0.2-0.5,0.3-0.8,0.3
		c-0.6,0-1-0.3-1-0.9c0-0.7,0.5-1.2,1.1-1.2c0.5,0,0.9,0.3,0.9,0.9c0,0.1,0,0.2,0,0.3H28z M28.1,20.7h1.5v-0.1
		c0-0.4-0.3-0.6-0.6-0.6C28.5,20,28.2,20.2,28.1,20.7z"/>
	<path class="st2" d="M33.6,18.9L33,21.8h-0.3l0.1-0.3c-0.2,0.2-0.5,0.3-0.8,0.3c-0.5,0-0.9-0.3-0.9-0.9c0-0.7,0.5-1.2,1.2-1.2
		c0.4,0,0.7,0.2,0.8,0.4l0.3-1.3h0.2V18.9z M33,20.6c0-0.4-0.2-0.6-0.7-0.6c-0.5,0-0.9,0.4-0.9,1c0,0.4,0.2,0.6,0.7,0.6
		C32.6,21.6,33,21.2,33,20.6z"/>
	<path class="st2" d="M34.1,20.9L34.1,20.9c0,0.5,0.2,0.7,0.7,0.7c0.3,0,0.5-0.1,0.7-0.3l0.1,0.2c-0.2,0.2-0.5,0.3-0.8,0.3
		c-0.6,0-1-0.3-1-0.9c0-0.7,0.5-1.2,1.1-1.2c0.5,0,0.9,0.3,0.9,0.9c0,0.1,0,0.2,0,0.3H34.1z M34.1,20.7h1.5v-0.1
		c0-0.4-0.3-0.6-0.6-0.6C34.5,20,34.2,20.2,34.1,20.7z"/>
	<path class="st2" d="M37.2,21c0-0.7,0.5-1.2,1.2-1.2c0.4,0,0.7,0.1,0.8,0.4L39,20.3c-0.1-0.2-0.3-0.3-0.6-0.3c-0.5,0-0.9,0.4-0.9,1
		c0,0.4,0.2,0.6,0.7,0.6c0.3,0,0.5-0.1,0.6-0.3l0.2,0.2c-0.2,0.2-0.5,0.4-0.9,0.4C37.6,21.8,37.2,21.5,37.2,21z"/>
	<path class="st2" d="M41.7,19.7l-0.4,2.1H41l0.1-0.3c-0.2,0.2-0.5,0.3-0.8,0.3c-0.5,0-0.9-0.3-0.9-0.9c0-0.7,0.5-1.2,1.2-1.2
		c0.4,0,0.7,0.2,0.8,0.4l0.1-0.4H41.7z M41.2,20.6c0-0.4-0.2-0.6-0.7-0.6s-0.9,0.4-0.9,1c0,0.4,0.2,0.6,0.7,0.6S41.2,21.2,41.2,20.6
		z"/>
	<path class="st2" d="M42.6,18.9h0.3l-0.6,2.9H42L42.6,18.9z"/>
	<path class="st2" d="M43.5,19.7h0.3l-0.4,2.1h-0.3L43.5,19.7z M43.6,19.1c0-0.1,0.1-0.2,0.2-0.2c0.1,0,0.2,0.1,0.2,0.2
		s-0.1,0.2-0.2,0.2C43.7,19.3,43.6,19.2,43.6,19.1z"/>
	<path class="st2" d="M46.6,18.9L46,21.8h-0.3l0.1-0.3c-0.2,0.2-0.5,0.3-0.8,0.3c-0.5,0-0.9-0.3-0.9-0.9c0-0.7,0.5-1.2,1.2-1.2
		c0.4,0,0.7,0.2,0.8,0.4l0.3-1.3h0.2V18.9z M46,20.6c0-0.4-0.2-0.6-0.7-0.6s-0.9,0.4-0.9,1c0,0.4,0.2,0.6,0.7,0.6S46,21.2,46,20.6z"
		/>
	<path class="st2" d="M49.1,19.7l-0.4,2.1h-0.3l0.1-0.3c-0.2,0.2-0.5,0.3-0.8,0.3c-0.5,0-0.9-0.3-0.9-0.9c0-0.7,0.5-1.2,1.2-1.2
		c0.4,0,0.7,0.2,0.8,0.4l0.1-0.4H49.1z M48.7,20.6c0-0.4-0.2-0.6-0.7-0.6s-0.9,0.4-0.9,1c0,0.4,0.2,0.6,0.7,0.6S48.7,21.2,48.7,20.6
		z"/>
	<path class="st2" d="M52,18.9l-0.6,2.9h-0.3l0.1-0.3c-0.2,0.2-0.5,0.3-0.8,0.3c-0.5,0-0.9-0.3-0.9-0.9c0-0.7,0.5-1.2,1.2-1.2
		c0.4,0,0.7,0.2,0.8,0.4l0.3-1.3H52V18.9z M51.3,20.6c0-0.4-0.2-0.6-0.7-0.6s-0.9,0.4-0.9,1c0,0.4,0.2,0.6,0.7,0.6
		C50.9,21.6,51.3,21.2,51.3,20.6z"/>
	<path class="st2" d="M55.6,18.9L55,21.8h-0.3l0.1-0.3c-0.2,0.2-0.5,0.3-0.8,0.3c-0.5,0-0.9-0.3-0.9-0.9c0-0.7,0.5-1.2,1.2-1.2
		c0.4,0,0.7,0.2,0.8,0.4l0.3-1.3h0.2V18.9z M55,20.6c0-0.4-0.2-0.6-0.7-0.6s-0.9,0.4-0.9,1c0,0.4,0.2,0.6,0.7,0.6S55,21.2,55,20.6z"
		/>
	<path class="st2" d="M56.1,20.9L56.1,20.9c0,0.5,0.2,0.7,0.7,0.7c0.3,0,0.5-0.1,0.7-0.3l0.1,0.2c-0.2,0.2-0.5,0.3-0.8,0.3
		c-0.6,0-1-0.3-1-0.9c0-0.7,0.5-1.2,1.1-1.2c0.5,0,0.9,0.3,0.9,0.9c0,0.1,0,0.2,0,0.3H56.1z M56.1,20.7h1.5v-0.1
		c0-0.4-0.3-0.6-0.6-0.6C56.5,20,56.2,20.2,56.1,20.7z"/>
	<path class="st2" d="M58.8,18.9h0.3l-0.6,2.9h-0.3L58.8,18.9z"/>
	<path class="st2" d="M62.6,19.7l-0.4,2.1h-0.3l0.1-0.3c-0.2,0.2-0.5,0.3-0.8,0.3c-0.5,0-0.9-0.3-0.9-0.9c0-0.7,0.5-1.2,1.2-1.2
		c0.4,0,0.7,0.2,0.8,0.4l0.1-0.4H62.6z M62.1,20.6c0-0.4-0.2-0.6-0.7-0.6s-0.9,0.4-0.9,1c0,0.4,0.2,0.6,0.7,0.6
		C61.7,21.6,62.1,21.2,62.1,20.6z"/>
	<path class="st2" d="M63.4,19.7h0.3l-0.4,2.1H63L63.4,19.7z M63.4,19.1c0-0.1,0.1-0.2,0.2-0.2s0.2,0.1,0.2,0.2s-0.1,0.2-0.2,0.2
		C63.5,19.3,63.4,19.2,63.4,19.1z"/>
	<path class="st2" d="M65.5,19.7L65.4,20c0,0,0,0-0.1,0c-0.4,0-0.7,0.3-0.8,0.8l-0.2,1H64l0.4-2.1h0.3l-0.1,0.4
		C64.8,19.9,65.1,19.7,65.5,19.7z"/>
	<path class="st2" d="M65.8,20.9L65.8,20.9c0,0.5,0.2,0.7,0.7,0.7c0.3,0,0.5-0.1,0.7-0.3l0.1,0.2c-0.2,0.2-0.5,0.3-0.8,0.3
		c-0.6,0-1-0.3-1-0.9c0-0.7,0.5-1.2,1.1-1.2c0.5,0,0.9,0.3,0.9,0.9c0,0.1,0,0.2,0,0.3H65.8z M65.8,20.7h1.5v-0.1
		c0-0.4-0.3-0.6-0.6-0.6C66.2,20,65.9,20.2,65.8,20.7z"/>
</g>
<g>
	<g>
		<path class="st2" d="M20.8,41.5c0,0.5-0.4,0.8-1.1,0.8h-1.3v-2.8h1.3c0.6,0,1,0.3,1,0.7c0,0.3-0.2,0.5-0.4,0.6
			C20.6,40.9,20.8,41.1,20.8,41.5z M18.8,39.8v0.9h0.8c0.4,0,0.6-0.2,0.6-0.4s-0.2-0.4-0.6-0.4L18.8,39.8L18.8,39.8z M20.4,41.5
			c0-0.3-0.2-0.5-0.7-0.5h-0.9v0.9h0.9C20.2,41.9,20.4,41.8,20.4,41.5z"/>
		<path class="st2" d="M23.3,40.1v2.1h-0.4v-0.3c-0.2,0.2-0.4,0.3-0.7,0.3c-0.5,0-0.9-0.3-0.9-0.9v-1.2h0.4v1.2
			c0,0.4,0.2,0.6,0.6,0.6s0.7-0.2,0.7-0.7v-1.1C23,40.1,23.3,40.1,23.3,40.1z"/>
		<path class="st2" d="M26,41.3h-1.7c0,0.4,0.3,0.6,0.8,0.6c0.2,0,0.5-0.1,0.6-0.3l0.2,0.2c-0.2,0.2-0.5,0.3-0.8,0.3
			c-0.7,0-1.1-0.5-1.1-1.1s0.5-1.1,1.1-1.1s1,0.4,1,1.1C26,41.2,26,41.3,26,41.3z M24.3,41h1.4c0-0.4-0.3-0.6-0.7-0.6
			C24.6,40.4,24.3,40.7,24.3,41z"/>
		<path class="st2" d="M28.5,41v1.2h-0.4V41c0-0.4-0.2-0.6-0.6-0.6s-0.7,0.2-0.7,0.7v1.1h-0.4v-2.1h0.4v0.3c0.2-0.2,0.4-0.3,0.8-0.3
			C28.2,40.1,28.5,40.4,28.5,41z"/>
		<path class="st2" d="M30.9,41v1.3h-0.4V42c-0.1,0.2-0.4,0.3-0.7,0.3c-0.5,0-0.8-0.3-0.8-0.6s0.2-0.6,0.9-0.6h0.6V41
			c0-0.3-0.2-0.5-0.6-0.5c-0.3,0-0.5,0.1-0.7,0.2l-0.1-0.3c0.2-0.2,0.5-0.3,0.9-0.3C30.6,40.1,30.9,40.4,30.9,41z M30.5,41.6v-0.3
			h-0.6c-0.4,0-0.5,0.1-0.5,0.3s0.2,0.3,0.5,0.3C30.2,42,30.4,41.9,30.5,41.6z"/>
		<rect x="32.1" y="41.2" class="st2" width="50.5" height="0.3"/>
	</g>
	<path id="buena" class="st3" d="M81.1,37.5H19.5c-0.9,0-1.6-0.7-1.6-1.6v-4.1c0-0.9,0.7-1.6,1.6-1.6h61.6c0.9,0,1.6,0.7,1.6,1.6
		v4.1C82.6,36.8,81.9,37.5,81.1,37.5z"/>
	<g>
		<path class="st2" d="M20.3,64l-0.6-0.9c-0.1,0-0.1,0-0.2,0h-0.7V64h-0.4v-2.8h1.1c0.7,0,1.2,0.4,1.2,1c0,0.4-0.2,0.7-0.6,0.9
			l0.7,0.9H20.3z M20.2,62.1c0-0.4-0.3-0.6-0.8-0.6h-0.7v1.3h0.7C20,62.8,20.2,62.5,20.2,62.1z"/>
		<path class="st2" d="M22.9,62.7V64h-0.4v-0.3c-0.1,0.2-0.4,0.3-0.7,0.3c-0.5,0-0.8-0.3-0.8-0.6c0-0.3,0.2-0.6,0.9-0.6h0.6v-0.1
			c0-0.3-0.2-0.5-0.6-0.5c-0.3,0-0.5,0.1-0.7,0.2l-0.1-0.3c0.2-0.2,0.5-0.3,0.9-0.3C22.6,61.8,22.9,62.1,22.9,62.7z M22.5,63.3V63
			h-0.6c-0.4,0-0.5,0.1-0.5,0.3c0,0.2,0.2,0.3,0.5,0.3C22.2,63.7,22.4,63.6,22.5,63.3z"/>
		<path class="st2" d="M25.2,63.7V64h-1.8v-0.2l1.3-1.6h-1.2v-0.3h1.7v0.3l-1.3,1.6h1.3V63.7z"/>
		<path class="st2" d="M25.5,62.9c0-0.6,0.5-1.1,1.1-1.1s1.1,0.4,1.1,1.1c0,0.6-0.5,1.1-1.1,1.1S25.5,63.5,25.5,62.9z M27.3,62.9
			c0-0.5-0.3-0.7-0.7-0.7c-0.4,0-0.7,0.3-0.7,0.7c0,0.5,0.3,0.7,0.7,0.7C27,63.7,27.3,63.4,27.3,62.9z"/>
		<path class="st2" d="M30.2,62.8V64h-0.4v-1.2c0-0.4-0.2-0.6-0.6-0.6s-0.7,0.2-0.7,0.7V64h-0.4v-2.1h0.4v0.3
			c0.2-0.2,0.4-0.3,0.8-0.3C29.9,61.8,30.2,62.1,30.2,62.8z"/>
		<path class="st2" d="M32.6,62.7V64h-0.4v-0.3c-0.1,0.2-0.4,0.3-0.7,0.3c-0.5,0-0.8-0.3-0.8-0.6c0-0.3,0.2-0.6,0.9-0.6h0.6v-0.1
			c0-0.3-0.2-0.5-0.6-0.5c-0.3,0-0.5,0.1-0.7,0.2l-0.2-0.3c0.2-0.2,0.5-0.3,0.9-0.3C32.3,61.8,32.6,62.1,32.6,62.7z M32.2,63.3V63
			h-0.6c-0.4,0-0.5,0.1-0.5,0.3c0,0.2,0.2,0.3,0.5,0.3C31.9,63.7,32.1,63.6,32.2,63.3z"/>
		<path class="st2" d="M35.5,62.9c0,0.6-0.5,1.1-1.1,1.1c-0.3,0-0.6-0.1-0.8-0.4v0.3h-0.4v-3h0.4v1.2c0.2-0.2,0.4-0.3,0.7-0.3
			C35.1,61.8,35.5,62.3,35.5,62.9z M35.1,62.9c0-0.5-0.3-0.7-0.7-0.7s-0.7,0.3-0.7,0.7c0,0.5,0.3,0.7,0.7,0.7
			C34.8,63.7,35.1,63.4,35.1,62.9z"/>
		<path class="st2" d="M36.1,61h0.4v3h-0.4V61z"/>
		<path class="st2" d="M39.1,63h-1.7c0,0.4,0.3,0.6,0.8,0.6c0.2,0,0.5-0.1,0.6-0.3l0.2,0.2c-0.2,0.2-0.5,0.3-0.8,0.3
			c-0.7,0-1.1-0.5-1.1-1.1s0.5-1.1,1.1-1.1s1,0.4,1,1.1C39.1,63,39.1,63,39.1,63z M37.4,62.8h1.4c0-0.4-0.3-0.6-0.7-0.6
			S37.4,62.4,37.4,62.8z"/>
		<path class="st2" d="M43.1,62.8V64h-0.4v-1.2c0-0.4-0.2-0.6-0.5-0.6c-0.4,0-0.6,0.2-0.6,0.7V64h-0.4v-1.2c0-0.4-0.2-0.6-0.5-0.6
			c-0.4,0-0.6,0.2-0.6,0.7V64h-0.4v-2.1h0.4v0.3c0.2-0.2,0.4-0.3,0.7-0.3s0.6,0.1,0.7,0.4c0.2-0.2,0.5-0.4,0.8-0.4
			C42.8,61.8,43.1,62.1,43.1,62.8z"/>
		<path class="st2" d="M45.8,63h-1.7c0,0.4,0.3,0.6,0.8,0.6c0.2,0,0.5-0.1,0.6-0.3l0.2,0.2c-0.2,0.2-0.5,0.3-0.8,0.3
			c-0.7,0-1.1-0.5-1.1-1.1s0.5-1.1,1.1-1.1s1,0.4,1,1.1C45.8,63,45.8,63,45.8,63z M44,62.8h1.4c0-0.4-0.3-0.6-0.7-0.6
			C44.4,62.2,44.1,62.4,44,62.8z"/>
		<path class="st2" d="M48.3,62.8V64h-0.4v-1.2c0-0.4-0.2-0.6-0.6-0.6c-0.4,0-0.7,0.2-0.7,0.7V64h-0.4v-2.1h0.4v0.3
			c0.2-0.2,0.4-0.3,0.8-0.3C47.9,61.8,48.3,62.1,48.3,62.8z"/>
		<path class="st2" d="M50.2,63.8c-0.1,0.1-0.3,0.1-0.5,0.1c-0.4,0-0.7-0.2-0.7-0.7V62h-0.4v-0.3h0.5v-0.3h0.4v0.5h0.6v0.3h-0.6v1.1
			c0,0.2,0.1,0.4,0.3,0.4c0.1,0,0.2,0,0.3-0.1L50.2,63.8z"/>
		<path class="st2" d="M52.5,63h-1.7c0,0.4,0.3,0.6,0.8,0.6c0.2,0,0.5-0.1,0.6-0.3l0.2,0.2c-0.2,0.2-0.5,0.3-0.8,0.3
			c-0.7,0-1.1-0.5-1.1-1.1s0.5-1.1,1.1-1.1s1,0.4,1,1.1C52.5,63,52.5,63,52.5,63z M50.8,62.8h1.4c0-0.4-0.3-0.6-0.7-0.6
			S50.8,62.4,50.8,62.8z"/>
		<path class="st2" d="M56.3,62.9c0,0.6-0.5,1.1-1.1,1.1c-0.3,0-0.6-0.1-0.8-0.4v0.3h-0.3v-3h0.4v1.2c0.2-0.2,0.4-0.3,0.7-0.3
			C55.9,61.8,56.3,62.3,56.3,62.9z M55.9,62.9c0-0.5-0.3-0.7-0.7-0.7s-0.7,0.3-0.7,0.7c0,0.5,0.3,0.7,0.7,0.7
			C55.6,63.7,55.9,63.4,55.9,62.9z"/>
		<path class="st2" d="M58.8,61.9V64h-0.4v-0.3C58.2,63.9,58,64,57.7,64c-0.5,0-0.9-0.3-0.9-0.9v-1.2h0.4v1.2c0,0.4,0.2,0.6,0.6,0.6
			c0.4,0,0.7-0.2,0.7-0.7v-1.1H58.8z"/>
		<path class="st2" d="M61.5,63h-1.7c0,0.4,0.3,0.6,0.8,0.6c0.2,0,0.5-0.1,0.6-0.3l0.2,0.2c-0.2,0.2-0.5,0.3-0.8,0.3
			c-0.7,0-1.1-0.5-1.1-1.1s0.5-1.1,1.1-1.1s1,0.4,1,1.1C61.5,63,61.5,63,61.5,63z M59.8,62.8h1.3c0-0.4-0.3-0.6-0.7-0.6
			C60.1,62.2,59.8,62.4,59.8,62.8z"/>
		<path class="st2" d="M64,62.8V64h-0.4v-1.2c0-0.4-0.2-0.6-0.6-0.6s-0.7,0.2-0.7,0.7V64h-0.4v-2.1h0.4v0.3c0.2-0.2,0.4-0.3,0.8-0.3
			C63.7,61.8,64,62.1,64,62.8z"/>
		<path class="st2" d="M66.4,62.7V64h-0.3v-0.3C66,63.9,65.7,64,65.4,64c-0.5,0-0.8-0.3-0.8-0.6c0-0.3,0.2-0.6,0.9-0.6h0.6v-0.1
			c0-0.3-0.2-0.5-0.6-0.5c-0.3,0-0.5,0.1-0.7,0.2l-0.2-0.3c0.2-0.2,0.5-0.3,0.9-0.3C66.1,61.8,66.4,62.1,66.4,62.7z M66,63.3V63
			h-0.6c-0.4,0-0.5,0.1-0.5,0.3c0,0.2,0.2,0.3,0.5,0.3C65.7,63.7,65.9,63.6,66,63.3z"/>
		<rect x="67.6" y="63" class="st2" width="15" height="0.3"/>
	</g>
	<path id="razonablementeBuena" class="st4" d="M81.1,59.2H19.5c-0.9,0-1.6-0.7-1.6-1.6v-4.1c0-0.9,0.7-1.6,1.6-1.6h61.6
		c0.9,0,1.6,0.7,1.6,1.6v4.1C82.6,58.5,81.9,59.2,81.1,59.2z"/>
</g>
<g>
	<g>
		<path class="st2" d="M119.8,42.2v-2l-1,1.7h-0.2l-1-1.7v2h-0.4v-2.8h0.3l1.2,2l1.2-2h0.3v2.8H119.8z"/>
		<path class="st2" d="M120.8,41.1c0-0.6,0.5-1.1,1.1-1.1c0.6,0,1.1,0.4,1.1,1.1c0,0.6-0.5,1.1-1.1,1.1
			C121.3,42.2,120.8,41.8,120.8,41.1z M122.6,41.1c0-0.5-0.3-0.7-0.7-0.7c-0.4,0-0.7,0.3-0.7,0.7s0.3,0.8,0.7,0.8
			C122.3,41.9,122.6,41.6,122.6,41.1z"/>
		<path class="st2" d="M125.5,39.2v3h-0.4v-0.3c-0.2,0.2-0.4,0.4-0.8,0.4c-0.6,0-1.1-0.4-1.1-1.1c0-0.6,0.5-1.1,1.1-1.1
			c0.3,0,0.6,0.1,0.7,0.3v-1.2C125,39.2,125.5,39.2,125.5,39.2z M125.1,41.1c0-0.5-0.3-0.7-0.7-0.7c-0.4,0-0.7,0.3-0.7,0.7
			s0.3,0.7,0.7,0.7C124.8,41.9,125.1,41.6,125.1,41.1z"/>
		<path class="st2" d="M128.1,41.3h-1.7c0,0.4,0.3,0.6,0.8,0.6c0.2,0,0.5-0.1,0.6-0.3l0.2,0.2c-0.2,0.2-0.5,0.3-0.8,0.3
			c-0.7,0-1.1-0.5-1.1-1.1s0.5-1.1,1.1-1.1s1,0.4,1,1.1C128.1,41.2,128.1,41.2,128.1,41.3z M126.4,41h1.4c0-0.4-0.3-0.6-0.7-0.6
			S126.5,40.6,126.4,41z"/>
		<path class="st2" d="M129.8,40v0.4h-0.1c-0.4,0-0.7,0.3-0.7,0.7v1.1h-0.4v-2.1h0.4v0.4C129.2,40.2,129.4,40,129.8,40z"/>
		<path class="st2" d="M132,40.9v1.3h-0.4v-0.3c-0.1,0.2-0.4,0.3-0.7,0.3c-0.5,0-0.8-0.3-0.8-0.6c0-0.3,0.2-0.6,0.9-0.6h0.6v-0.1
			c0-0.3-0.2-0.5-0.6-0.5c-0.3,0-0.5,0.1-0.7,0.2l-0.2-0.3c0.2-0.2,0.5-0.3,0.9-0.3C131.6,40,132,40.3,132,40.9z M131.6,41.5v-0.3
			H131c-0.4,0-0.5,0.1-0.5,0.3c0,0.2,0.2,0.3,0.5,0.3C131.2,41.9,131.5,41.8,131.6,41.5z"/>
		<path class="st2" d="M134.7,39.2v3h-0.4v-0.3c-0.2,0.2-0.4,0.4-0.8,0.4c-0.6,0-1.1-0.4-1.1-1.1c0-0.6,0.5-1.1,1.1-1.1
			c0.3,0,0.6,0.1,0.7,0.3v-1.2C134.2,39.2,134.7,39.2,134.7,39.2z M134.3,41.1c0-0.5-0.3-0.7-0.7-0.7c-0.4,0-0.7,0.3-0.7,0.7
			s0.3,0.7,0.7,0.7C134,41.9,134.3,41.6,134.3,41.1z"/>
		<path class="st2" d="M137.1,40.9v1.3h-0.4v-0.3c-0.1,0.2-0.4,0.3-0.7,0.3c-0.5,0-0.8-0.3-0.8-0.6c0-0.3,0.2-0.6,0.9-0.6h0.6v-0.1
			c0-0.3-0.2-0.5-0.6-0.5c-0.3,0-0.5,0.1-0.7,0.2l-0.2-0.3c0.2-0.2,0.5-0.3,0.9-0.3C136.8,40,137.1,40.3,137.1,40.9z M136.7,41.5
			v-0.3h-0.6c-0.4,0-0.5,0.1-0.5,0.3c0,0.2,0.2,0.3,0.5,0.3C136.4,41.9,136.6,41.8,136.7,41.5z"/>
		<rect x="138.1" y="41.2" class="st2" width="43.3" height="0.3"/>
	</g>
	<path id="moderada" class="st5" d="M179.9,37.5h-61.6c-0.9,0-1.6-0.7-1.6-1.6v-4.1c0-0.9,0.7-1.6,1.6-1.6h61.6
		c0.9,0,1.6,0.7,1.6,1.6v4.1C181.4,36.8,180.7,37.5,179.9,37.5z"/>
	<g>
		<path class="st2" d="M117.2,61.1h1.2c0.9,0,1.5,0.6,1.5,1.4s-0.6,1.4-1.5,1.4h-1.2V61.1z M118.3,63.6c0.7,0,1.1-0.4,1.1-1.1
			c0-0.6-0.4-1.1-1.1-1.1h-0.8v2.1L118.3,63.6L118.3,63.6z"/>
		<path class="st2" d="M122.3,63h-1.7c0,0.4,0.3,0.6,0.8,0.6c0.2,0,0.5-0.1,0.6-0.3l0.2,0.2c-0.2,0.2-0.5,0.3-0.8,0.3
			c-0.7,0-1.1-0.5-1.1-1.1s0.5-1.1,1.1-1.1c0.6,0,1,0.4,1,1.1C122.4,62.9,122.3,62.9,122.3,63z M120.6,62.7h1.4
			c0-0.4-0.3-0.6-0.7-0.6C120.9,62.1,120.7,62.3,120.6,62.7z"/>
		<path class="st2" d="M122.6,63.7l0.2-0.3c0.2,0.1,0.5,0.2,0.7,0.2c0.4,0,0.5-0.1,0.5-0.3c0-0.5-1.3-0.1-1.3-0.9
			c0-0.4,0.3-0.6,0.9-0.6c0.3,0,0.6,0.1,0.8,0.2l-0.2,0.3c-0.2-0.1-0.4-0.2-0.6-0.2c-0.3,0-0.5,0.1-0.5,0.3c0,0.5,1.3,0.1,1.3,0.9
			c0,0.4-0.4,0.6-0.9,0.6C123.1,63.9,122.8,63.8,122.6,63.7z"/>
		<path class="st2" d="M125.3,61.6v0.2h0.6v0.3h-0.6v1.8h-0.4v-1.8h-0.4v-0.3h0.4v-0.2c0-0.4,0.2-0.7,0.7-0.7c0.2,0,0.3,0,0.4,0.1
			l-0.1,0.3c-0.1-0.1-0.2-0.1-0.3-0.1C125.4,61.2,125.3,61.4,125.3,61.6z"/>
		<path class="st2" d="M127.9,62.6v1.3h-0.4v-0.3c-0.1,0.2-0.4,0.3-0.7,0.3c-0.5,0-0.8-0.3-0.8-0.6c0-0.3,0.2-0.6,0.9-0.6h0.6v-0.1
			c0-0.3-0.2-0.5-0.6-0.5c-0.3,0-0.5,0.1-0.7,0.2L126,62c0.2-0.2,0.5-0.3,0.9-0.3C127.6,61.8,127.9,62,127.9,62.6z M127.6,63.3V63
			H127c-0.4,0-0.5,0.1-0.5,0.3c0,0.2,0.2,0.3,0.5,0.3C127.2,63.6,127.5,63.5,127.6,63.3z"/>
		<path class="st2" d="M130.5,61.8l-0.9,2.1h-0.4l-0.9-2.1h0.4l0.7,1.7l0.7-1.7H130.5z"/>
		<path class="st2" d="M130.6,62.8c0-0.6,0.5-1.1,1.1-1.1c0.6,0,1.1,0.4,1.1,1.1c0,0.6-0.5,1.1-1.1,1.1
			C131.1,63.9,130.6,63.5,130.6,62.8z M132.4,62.8c0-0.5-0.3-0.7-0.7-0.7c-0.4,0-0.7,0.3-0.7,0.7s0.3,0.7,0.7,0.7
			C132.1,63.6,132.4,63.3,132.4,62.8z"/>
		<path class="st2" d="M134.5,61.8v0.4h-0.1c-0.4,0-0.7,0.3-0.7,0.7V64h-0.4v-2.1h0.4v0.4C133.8,61.9,134.1,61.8,134.5,61.8z"/>
		<path class="st2" d="M136.6,62.6v1.3h-0.4v-0.3c-0.1,0.2-0.4,0.3-0.7,0.3c-0.5,0-0.8-0.3-0.8-0.6c0-0.3,0.2-0.6,0.9-0.6h0.6v-0.1
			c0-0.3-0.2-0.5-0.6-0.5c-0.3,0-0.5,0.1-0.7,0.2l-0.2-0.3c0.2-0.2,0.5-0.3,0.9-0.3C136.3,61.8,136.6,62,136.6,62.6z M136.2,63.3V63
			h-0.6c-0.4,0-0.5,0.1-0.5,0.3c0,0.2,0.2,0.3,0.5,0.3C135.9,63.6,136.1,63.5,136.2,63.3z"/>
		<path class="st2" d="M139.5,62.8c0,0.6-0.5,1.1-1.1,1.1c-0.3,0-0.6-0.1-0.8-0.4v0.3h-0.4v-3h0.4V62c0.2-0.2,0.4-0.3,0.7-0.3
			C139.1,61.8,139.5,62.2,139.5,62.8z M139.1,62.8c0-0.5-0.3-0.7-0.7-0.7c-0.4,0-0.7,0.3-0.7,0.7s0.3,0.7,0.7,0.7
			C138.8,63.6,139.1,63.3,139.1,62.8z"/>
		<path class="st2" d="M140.1,60.9h0.4v3h-0.4V60.9z"/>
		<path class="st2" d="M143.1,63h-1.7c0,0.4,0.3,0.6,0.8,0.6c0.2,0,0.5-0.1,0.6-0.3l0.2,0.2c-0.2,0.2-0.5,0.3-0.8,0.3
			c-0.7,0-1.1-0.5-1.1-1.1s0.5-1.1,1.1-1.1c0.6,0,1,0.4,1,1.1C143.1,62.9,143.1,62.9,143.1,63z M141.4,62.7h1.4
			c0-0.4-0.3-0.6-0.7-0.6C141.7,62.1,141.4,62.3,141.4,62.7z"/>
		<rect x="144.4" y="62.9" class="st2" width="37" height="0.3"/>
	</g>
	<path id="desfavorable" class="st6" d="M179.9,59.2h-61.6c-0.9,0-1.6-0.7-1.6-1.6v-4.1c0-0.9,0.7-1.6,1.6-1.6h61.6
		c0.9,0,1.6,0.7,1.6,1.6v4.1C181.4,58.5,180.7,59.2,179.9,59.2z"/>
</g>
<g>
	<path id="muyDesfavorable" class="st7" d="M278.8,37.5h-61.6c-0.9,0-1.6-0.7-1.6-1.6v-4.1c0-0.9,0.7-1.6,1.6-1.6h61.6
		c0.9,0,1.6,0.7,1.6,1.6v4.1C280.3,36.8,279.6,37.5,278.8,37.5z"/>
	<g>
		<path class="st2" d="M218.7,42.2v-2l-1,1.7h-0.2l-1-1.7v2h-0.4v-2.8h0.3l1.2,2l1.2-2h0.3v2.8H218.7z"/>
		<path class="st2" d="M221.8,40.1v2.1h-0.4v-0.3c-0.2,0.2-0.4,0.3-0.7,0.3c-0.5,0-0.9-0.3-0.9-0.9v-1.2h0.4v1.2
			c0,0.4,0.2,0.6,0.6,0.6c0.4,0,0.7-0.2,0.7-0.7v-1.1L221.8,40.1L221.8,40.1z"/>
		<path class="st2" d="M224.4,40.1l-1,2.3c-0.2,0.4-0.4,0.6-0.8,0.6c-0.2,0-0.4-0.1-0.5-0.2l0.2-0.3c0.1,0.1,0.2,0.2,0.4,0.2
			s0.3-0.1,0.4-0.3l0.1-0.1l-0.9-2.1h0.4l0.7,1.7l0.7-1.7L224.4,40.1L224.4,40.1z"/>
		<path class="st2" d="M227.9,39.2v3h-0.4v-0.3c-0.2,0.2-0.4,0.4-0.8,0.4c-0.6,0-1.1-0.4-1.1-1.1c0-0.6,0.5-1.1,1.1-1.1
			c0.3,0,0.6,0.1,0.7,0.3v-1.2L227.9,39.2L227.9,39.2z M227.5,41.2c0-0.5-0.3-0.7-0.7-0.7c-0.4,0-0.7,0.3-0.7,0.7s0.3,0.7,0.7,0.7
			C227.2,41.9,227.5,41.6,227.5,41.2z"/>
		<path class="st2" d="M230.5,41.3h-1.7c0,0.4,0.3,0.6,0.8,0.6c0.2,0,0.5-0.1,0.6-0.3l0.2,0.2c-0.2,0.2-0.5,0.3-0.8,0.3
			c-0.7,0-1.1-0.5-1.1-1.1s0.5-1.1,1.1-1.1c0.6,0,1,0.4,1,1.1C230.5,41.2,230.5,41.2,230.5,41.3z M228.8,41h1.4
			c0-0.4-0.3-0.6-0.7-0.6C229.1,40.4,228.8,40.6,228.8,41z"/>
		<path class="st2" d="M230.8,42l0.2-0.3c0.2,0.1,0.5,0.2,0.7,0.2c0.4,0,0.5-0.1,0.5-0.3c0-0.5-1.3-0.1-1.3-0.9
			c0-0.4,0.3-0.6,0.9-0.6c0.3,0,0.6,0.1,0.8,0.2l-0.2,0.3c-0.2-0.1-0.4-0.2-0.6-0.2c-0.3,0-0.5,0.1-0.5,0.3c0,0.5,1.3,0.1,1.3,0.9
			c0,0.4-0.4,0.6-0.9,0.6C231.3,42.2,231,42.1,230.8,42z"/>
		<path class="st2" d="M233.5,39.9v0.2h0.6v0.3h-0.6v1.8h-0.4v-1.8h-0.3v-0.3h0.4v-0.2c0-0.4,0.2-0.7,0.7-0.7c0.2,0,0.3,0,0.4,0.1
			l-0.1,0.3c-0.1-0.1-0.2-0.1-0.3-0.1C233.6,39.5,233.5,39.7,233.5,39.9z"/>
		<path class="st2" d="M236.1,40.9v1.3h-0.4v-0.3c-0.1,0.2-0.4,0.3-0.7,0.3c-0.5,0-0.8-0.3-0.8-0.6s0.2-0.6,0.9-0.6h0.6v-0.1
			c0-0.3-0.2-0.5-0.6-0.5c-0.3,0-0.5,0.1-0.7,0.2l-0.2-0.3c0.2-0.2,0.5-0.3,0.9-0.3C235.8,40.1,236.1,40.4,236.1,40.9z M235.7,41.6
			v-0.3h-0.6c-0.4,0-0.5,0.1-0.5,0.3s0.2,0.3,0.5,0.3C235.4,41.9,235.6,41.8,235.7,41.6z"/>
		<path class="st2" d="M238.7,40.1l-0.9,2.1h-0.4l-0.9-2.1h0.3l0.7,1.7l0.7-1.7H238.7z"/>
		<path class="st2" d="M238.8,41.2c0-0.6,0.5-1.1,1.1-1.1c0.6,0,1.1,0.4,1.1,1.1c0,0.6-0.5,1.1-1.1,1.1
			C239.3,42.3,238.8,41.8,238.8,41.2z M240.6,41.2c0-0.5-0.3-0.7-0.7-0.7c-0.4,0-0.7,0.3-0.7,0.7s0.3,0.7,0.7,0.7
			C240.3,41.9,240.6,41.6,240.6,41.2z"/>
		<path class="st2" d="M242.6,40.1v0.4h-0.1c-0.4,0-0.7,0.3-0.7,0.7v1.1h-0.4v-2.1h0.4v0.4C242,40.2,242.3,40.1,242.6,40.1z"/>
		<path class="st2" d="M244.8,40.9v1.3h-0.4v-0.3c-0.1,0.2-0.4,0.3-0.7,0.3c-0.5,0-0.8-0.3-0.8-0.6s0.2-0.6,0.9-0.6h0.6v-0.1
			c0-0.3-0.2-0.5-0.6-0.5c-0.3,0-0.5,0.1-0.7,0.2l-0.2-0.3c0.2-0.2,0.5-0.3,0.9-0.3C244.5,40.1,244.8,40.4,244.8,40.9z M244.4,41.6
			v-0.3h-0.6c-0.4,0-0.5,0.1-0.5,0.3s0.2,0.3,0.5,0.3C244.1,41.9,244.3,41.8,244.4,41.6z"/>
		<path class="st2" d="M247.7,41.2c0,0.6-0.5,1.1-1.1,1.1c-0.3,0-0.6-0.1-0.8-0.4v0.3h-0.4v-3h0.4v1.2c0.2-0.2,0.4-0.3,0.7-0.3
			C247.2,40.1,247.7,40.5,247.7,41.2z M247.3,41.2c0-0.5-0.3-0.7-0.7-0.7c-0.4,0-0.7,0.3-0.7,0.7s0.3,0.7,0.7,0.7
			C247,41.9,247.3,41.6,247.3,41.2z"/>
		<path class="st2" d="M248.2,39.2h0.4v3h-0.4V39.2z"/>
		<path class="st2" d="M251.2,41.3h-1.7c0,0.4,0.3,0.6,0.8,0.6c0.2,0,0.5-0.1,0.6-0.3l0.2,0.2c-0.2,0.2-0.5,0.3-0.8,0.3
			c-0.7,0-1.1-0.5-1.1-1.1s0.5-1.1,1.1-1.1c0.6,0,1,0.4,1,1.1C251.3,41.2,251.2,41.2,251.2,41.3z M249.5,41h1.4
			c0-0.4-0.3-0.6-0.7-0.6C249.8,40.4,249.6,40.6,249.5,41z"/>
		<rect x="252.6" y="41.2" class="st2" width="27.7" height="0.3"/>
	</g>
</g>
<rect x="70.7" y="20.6" class="st2" width="209.6" height="0.3"/>
</svg>
